<svg xmlns="http://www.w3.org/2000/svg" width="117" height="26" fill="none"><path fill="#2D2D2D" d="m38.215 2.214-6.738 18.073h2.556l1.471-4.054h8.133l1.471 4.054h2.557L40.927 2.214h-2.712ZM36.33 13.988l3.228-8.907 3.253 8.907h-6.48ZM59.05 9.6c-1.109-1.704-2.736-2.557-4.853-2.557-1.833 0-3.409.645-4.673 1.962-1.266 1.29-1.91 2.867-1.91 4.751 0 1.884.645 3.46 1.91 4.776 1.266 1.317 2.84 1.962 4.673 1.962 2.092 0 3.717-.852 4.854-2.583v1.833c0 2.454-1.628 3.95-4.312 3.95-2.091 0-3.511-.723-4.208-2.168l-1.962 1.11c1.058 2.04 3.228 3.15 6.12 3.15 1.805 0 3.355-.543 4.647-1.601 1.29-1.058 1.936-2.53 1.936-4.44V7.377H59.05v2.221Zm-1.316 7.436c-.878.877-1.963 1.317-3.28 1.317-1.317 0-2.402-.44-3.28-1.317-.877-.878-1.316-1.963-1.316-3.28 0-1.317.44-2.375 1.317-3.253.877-.877 1.962-1.317 3.28-1.317 1.316 0 2.401.44 3.279 1.317.877.878 1.317 1.963 1.317 3.253s-.44 2.402-1.317 3.28Zm12.054-9.993c-1.987 0-3.614.646-4.88 1.936s-1.885 2.918-1.885 4.854c0 1.935.646 3.588 1.911 4.88 1.29 1.266 2.97 1.91 5.01 1.91 2.53 0 4.416-.981 5.68-2.917l-1.911-1.085c-.775 1.266-2.014 1.885-3.718 1.885-2.453 0-4.235-1.343-4.672-3.642H76.14c.052-.335.078-.671.078-1.007 0-1.884-.593-3.485-1.808-4.802-1.188-1.342-2.737-2.013-4.621-2.013l-.002.001Zm-4.467 5.86c.386-2.272 2.065-3.743 4.467-3.743 2.065 0 3.769 1.29 4.157 3.744h-8.624Zm18.976-5.86c-1.885 0-3.28.723-4.184 2.195v-1.86h-2.246v12.91h2.246v-6.842c0-2.891 1.498-4.26 3.744-4.26 1.99 0 3.202 1.213 3.202 3.304v7.798h2.246v-7.925c0-3.28-1.988-5.318-5.01-5.318l.002-.002ZM97.57 18.404c-1.29 0-2.375-.44-3.252-1.317-.853-.878-1.29-1.962-1.29-3.253 0-1.29.439-2.402 1.29-3.28.877-.877 1.962-1.316 3.253-1.316 1.73 0 3.175.904 3.822 2.272l1.884-1.085c-1.007-2.065-3.15-3.382-5.706-3.382-1.936 0-3.564.645-4.854 1.962-1.29 1.29-1.936 2.892-1.936 4.83 0 1.937.645 3.536 1.936 4.853 1.29 1.29 2.918 1.936 4.854 1.936 2.504 0 4.699-1.318 5.809-3.356l-1.911-1.11c-.723 1.369-2.168 2.246-3.898 2.246Zm16.134-11.026-3.718 10.12-4.389-10.12h-2.402l5.629 12.857-.233.491c-.748 1.885-1.911 2.762-3.485 2.634v2.092c2.581.181 4.622-1.446 5.731-4.364l5.267-13.71h-2.402.002ZM12.59.214C5.648.214 0 5.864 0 12.806c0 3.455 1.37 6.676 3.86 9.072l.885.851 4.024-4.024.013.007 1.835-1.834s-.01-.004-.013-.008l1.986-1.985 1.985 1.986c-.6.296-1.274.46-1.985.46h-.066l-2.147 2.149a7 7 0 0 0 6.033-.773l4.022 4.024.885-.85a12.491 12.491 0 0 0 3.862-9.074C25.181 5.864 19.532.214 12.59.214Zm0 11.128-3.845 3.845a4.476 4.476 0 0 1-.681-2.381 4.532 4.532 0 0 1 4.527-4.528 4.53 4.53 0 0 1 4.528 4.528c0 .874-.248 1.69-.68 2.382l-3.846-3.847h-.003Zm7.826 7.828-2.179-2.18a6.978 6.978 0 0 0 1.385-4.184 7.04 7.04 0 0 0-7.032-7.032c-3.879 0-7.03 3.155-7.03 7.032 0 1.567.513 3.013 1.384 4.183l-2.18 2.18a9.989 9.989 0 0 1-2.26-6.363c0-5.563 4.525-10.087 10.086-10.087 5.56 0 10.084 4.526 10.084 10.087a9.988 9.988 0 0 1-2.258 6.364Z"/></svg>
